REM DIRINDEX 1\3,1\2\4,1\2\5,1\2\6
REM DIRNAME folder01,folder02,folder03,folder04,folder05,folder06
TITLE ""
FILE "068.mp3" MP3
  TRACK 01 AUDIO
    TITLE "4:cjc137_2780"
    INDEX 01 00:00:00
  TRACK 02 AUDIO
    TITLE "0:"
    INDEX 01 00:01:19
  TRACK 03 AUDIO
    TITLE "6:cjc137_2781"
    INDEX 01 00:01:24
  TRACK 04 AUDIO
    TITLE "0:"
    INDEX 01 00:02:36
  TRACK 05 AUDIO
    TITLE "5:cjc137_2782"
    INDEX 01 00:02:43
  TRACK 06 AUDIO
    TITLE "0:"
    INDEX 01 00:03:57
  TRACK 07 AUDIO
    TITLE "4:cjc137_2783"
    INDEX 01 00:04:68
  TRACK 08 AUDIO
    TITLE "0:"
    INDEX 01 00:06:00
  TRACK 09 AUDIO
    TITLE "6:cjc137_2784"
    INDEX 01 00:06:06
  TRACK 10 AUDIO
    TITLE "0:"
    INDEX 01 00:07:66
  TRACK 11 AUDIO
    TITLE "5:cjc137_2785"
    INDEX 01 00:07:72
  TRACK 12 AUDIO
    TITLE "0:"
    INDEX 01 00:09:04
  TRACK 13 AUDIO
    TITLE "4:cjc137_2786"
    INDEX 01 00:10:12
  TRACK 14 AUDIO
    TITLE "0:"
    INDEX 01 00:11:21
  TRACK 15 AUDIO
    TITLE "6:cjc137_2787"
    INDEX 01 00:11:29
  TRACK 16 AUDIO
    TITLE "0:"
    INDEX 01 00:12:60
  TRACK 17 AUDIO
    TITLE "5:cjc137_2788"
    INDEX 01 00:12:63
  TRACK 18 AUDIO
    TITLE "0:"
    INDEX 01 00:14:00
  TRACK 19 AUDIO
    TITLE "4:cjc137_2789"
    INDEX 01 00:15:07
  TRACK 20 AUDIO
    TITLE "0:"
    INDEX 01 00:16:18
  TRACK 21 AUDIO
    TITLE "6:cjc137_2790"
    INDEX 01 00:16:22
  TRACK 22 AUDIO
    TITLE "0:"
    INDEX 01 00:17:21
  TRACK 23 AUDIO
    TITLE "5:cjc137_2791"
    INDEX 01 00:17:25
  TRACK 24 AUDIO
    TITLE "0:"
    INDEX 01 00:18:37
  TRACK 25 AUDIO
    TITLE "4:cjc137_2792"
    INDEX 01 00:19:46
  TRACK 26 AUDIO
    TITLE "0:"
    INDEX 01 00:20:63
  TRACK 27 AUDIO
    TITLE "6:cjc137_2793"
    INDEX 01 00:20:67
  TRACK 28 AUDIO
    TITLE "0:"
    INDEX 01 00:21:70
  TRACK 29 AUDIO
    TITLE "5:cjc137_2794"
    INDEX 01 00:22:01
  TRACK 30 AUDIO
    TITLE "0:"
    INDEX 01 00:23:16
  TRACK 31 AUDIO
    TITLE "4:cjc137_2795"
    INDEX 01 00:24:22
  TRACK 32 AUDIO
    TITLE "0:"
    INDEX 01 00:25:15
  TRACK 33 AUDIO
    TITLE "6:cjc137_2796"
    INDEX 01 00:25:29
  TRACK 34 AUDIO
    TITLE "0:"
    INDEX 01 00:26:22
  TRACK 35 AUDIO
    TITLE "5:cjc137_2797"
    INDEX 01 00:26:30
  TRACK 36 AUDIO
    TITLE "0:"
    INDEX 01 00:27:24
  TRACK 37 AUDIO
    TITLE "4:cjc137_2798"
    INDEX 01 00:28:35
  TRACK 38 AUDIO
    TITLE "0:"
    INDEX 01 00:29:40
  TRACK 39 AUDIO
    TITLE "6:cjc137_2799"
    INDEX 01 00:29:44
  TRACK 40 AUDIO
    TITLE "0:"
    INDEX 01 00:30:40
  TRACK 41 AUDIO
    TITLE "5:cjc137_2800"
    INDEX 01 00:30:44
  TRACK 42 AUDIO
    TITLE "0:"
    INDEX 01 00:31:49
  TRACK 43 AUDIO
    TITLE "4:cjc137_2801"
    INDEX 01 00:32:54
  TRACK 44 AUDIO
    TITLE "0:"
    INDEX 01 00:34:10
  TRACK 45 AUDIO
    TITLE "6:cjc137_2802"
    INDEX 01 00:34:14
  TRACK 46 AUDIO
    TITLE "0:"
    INDEX 01 00:35:43
  TRACK 47 AUDIO
    TITLE "5:cjc137_2803"
    INDEX 01 00:35:47
  TRACK 48 AUDIO
    TITLE "0:"
    INDEX 01 00:37:01
  TRACK 49 AUDIO
    TITLE "4:cjc137_2804"
    INDEX 01 00:38:08
  TRACK 50 AUDIO
    TITLE "0:"
    INDEX 01 00:39:33
  TRACK 51 AUDIO
    TITLE "6:cjc137_2805"
    INDEX 01 00:39:41
  TRACK 52 AUDIO
    TITLE "0:"
    INDEX 01 00:40:70
  TRACK 53 AUDIO
    TITLE "5:cjc137_2806"
    INDEX 01 00:40:73
  TRACK 54 AUDIO
    TITLE "0:"
    INDEX 01 00:42:27
  TRACK 55 AUDIO
    TITLE "4:cjc137_2807"
    INDEX 01 00:43:35
  TRACK 56 AUDIO
    TITLE "0:"
    INDEX 01 00:44:46
  TRACK 57 AUDIO
    TITLE "6:cjc137_2808"
    INDEX 01 00:44:52
  TRACK 58 AUDIO
    TITLE "0:"
    INDEX 01 00:45:51
  TRACK 59 AUDIO
    TITLE "5:cjc137_2809"
    INDEX 01 00:45:55
  TRACK 60 AUDIO
    TITLE "0:"
    INDEX 01 00:46:66
  TRACK 61 AUDIO
    TITLE "4:cjc137_2810"
    INDEX 01 00:47:74
  TRACK 62 AUDIO
    TITLE "0:"
    INDEX 01 00:49:18
  TRACK 63 AUDIO
    TITLE "6:cjc137_2811"
    INDEX 01 00:49:23
  TRACK 64 AUDIO
    TITLE "0:"
    INDEX 01 00:50:66
  TRACK 65 AUDIO
    TITLE "5:cjc137_2812"
    INDEX 01 00:50:72
  TRACK 66 AUDIO
    TITLE "0:"
    INDEX 01 00:52:16
  TRACK 67 AUDIO
    TITLE "4:cjc137_2813"
    INDEX 01 00:53:23
  TRACK 68 AUDIO
    TITLE "0:"
    INDEX 01 00:54:36
  TRACK 69 AUDIO
    TITLE "6:cjc137_2814"
    INDEX 01 00:54:42
  TRACK 70 AUDIO
    TITLE "0:"
    INDEX 01 00:55:57
  TRACK 71 AUDIO
    TITLE "5:cjc137_2815"
    INDEX 01 00:55:63
  TRACK 72 AUDIO
    TITLE "0:"
    INDEX 01 00:57:01
  TRACK 73 AUDIO
    TITLE "4:cjc137_2816"
    INDEX 01 00:58:09
  TRACK 74 AUDIO
    TITLE "0:"
    INDEX 01 00:59:24
  TRACK 75 AUDIO
    TITLE "6:cjc137_2817"
    INDEX 01 00:59:32
  TRACK 76 AUDIO
    TITLE "0:"
    INDEX 01 01:00:27
  TRACK 77 AUDIO
    TITLE "5:cjc137_2818"
    INDEX 01 01:00:35
  TRACK 78 AUDIO
    TITLE "0:"
    INDEX 01 01:01:52
  TRACK 79 AUDIO
    TITLE "4:cjc137_2819"
    INDEX 01 01:02:61
  TRACK 80 AUDIO
    TITLE "0:"
    INDEX 01 01:03:73
  TRACK 81 AUDIO
    TITLE "6:cjc137_2820"
    INDEX 01 01:04:03
  TRACK 82 AUDIO
    TITLE "0:"
    INDEX 01 01:05:15
  TRACK 83 AUDIO
    TITLE "5:cjc137_2821"
    INDEX 01 01:05:24
  TRACK 84 AUDIO
    TITLE "0:"
    INDEX 01 01:06:36
